<?xml version="1.0" encoding="utf-8"?>
<!-- Generator: Adobe Illustrator 15.1.0, SVG Export Plug-In . SVG Version: 6.00 Build 0)  -->
<!DOCTYPE svg PUBLIC "-//W3C//DTD SVG 1.1//EN" "http://www.w3.org/Graphics/SVG/1.1/DTD/svg11.dtd">
<svg version="1.1" xmlns="http://www.w3.org/2000/svg" xmlns:xlink="http://www.w3.org/1999/xlink" x="0px" y="0px" width="200px"
	 height="300px" viewBox="0 0 200 300" enable-background="new 0 0 200 300" xml:space="preserve">
<g id="Layer_1" display="none">
	<g display="inline">
		<path fill="#FFFFFF" stroke="#000000" stroke-width="8.3865" stroke-miterlimit="10" d="M138.906,109.099
			C119.933,78.925,106.7,51.01,101.457,39.375c0,0-0.432-0.94-1.263-0.94c-0.826,0-1.251,0.94-1.251,0.94
			c-5.246,11.63-18.477,39.55-37.454,69.724c-97.954,155.743,18.548,166.055,37.454,166.71v0.042c0,0,0.454,0.01,1.251-0.006
			c0.807,0.016,1.263,0.006,1.263,0.006v-0.042C120.357,275.153,236.857,264.836,138.906,109.099z"/>
		<path d="M92.4,31.582c0,0,7.896-11.206,7.509-26.891c-0.389-15.685,2.145,25.497,8.901,26.891"/>
		<path d="M100.259,43.781L75.266,93.506c0,0,20.825-50.213,45.893-6.673"/>
		<path stroke="#FFFFFF" stroke-width="2.7955" stroke-miterlimit="10" d="M30.769,188.93"/>
		<path fill="#4B4B4B" stroke="#FFFFFF" stroke-width="3.5428" stroke-miterlimit="10" d="M35.781,271.396"/>
		<path stroke="#FFFFFF" stroke-width="2.7955" stroke-miterlimit="10" d="M29.974,178.414"/>
		<path fill="#FFFFFF" stroke="#000000" stroke-width="5.591" stroke-miterlimit="10" d="M109.67,35.039
			c0-4.827-4.227-8.745-9.446-8.745c-5.218,0-9.448,3.918-9.448,8.745c0,4.827,4.23,8.743,9.448,8.743
			C105.443,43.781,109.67,39.866,109.67,35.039z"/>
		<path stroke="#FFFFFF" stroke-width="2.7955" stroke-miterlimit="10" d="M34.587,181.955"/>
		<path fill="#FFFFFF" stroke="#000000" stroke-width="3.6341" stroke-miterlimit="10" d="M105.425,24.143
			c0-2.672-2.342-4.837-5.228-4.837c-2.893,0-5.229,2.165-5.229,4.837c0,2.677,2.336,4.84,5.229,4.84
			C105.751,28.983,105.425,24.154,105.425,24.143z"/>
		<path fill="#FFFFFF" stroke="#000000" stroke-width="2.7955" stroke-miterlimit="10" d="M80.575,82.571
			c-0.243-0.023-0.532,0.03-0.849,0.167c-1.283,0.554-2.601,2.261-2.943,3.814c-0.215,0.972-0.158,1.401,0.349,2.022
			C81.276,91.564,85.535,82.568,80.575,82.571z"/>
		<path fill="#FFFFFF" stroke="#000000" stroke-width="2.7955" stroke-miterlimit="10" d="M119.924,82.574
			c0.247-0.023,0.535,0.029,0.854,0.169c1.283,0.555,2.605,2.269,2.949,3.828c0.217,0.975,0.162,1.405-0.344,2.029
			C119.218,91.602,114.941,82.57,119.924,82.574z"/>
		<path fill="#FFFFFF" stroke="#000000" stroke-width="2.7955" stroke-miterlimit="10" d="M105.729,5.837
			c0-2.673-2.345-4.837-5.229-4.837c-2.893,0-5.229,2.164-5.229,4.837c0,2.676,2.336,4.839,5.229,4.839
			C103.384,10.676,105.729,8.513,105.729,5.837z"/>
		<path fill="#FFFFFF" stroke="#000000" stroke-width="2.7955" stroke-miterlimit="10" d="M99.571,88.84
			c-0.237,0.069-0.482,0.231-0.715,0.48c-0.947,1.002-1.413,3.092-1.043,4.672c0.235,0.985,0.479,1.363,1.227,1.75
			C104.229,96.937,104.188,86.945,99.571,88.84z"/>
	</g>
</g>
<g id="Layer_4">
	<path stroke="#FFFFFF" stroke-width="2.7955" stroke-miterlimit="10" d="M58.127,120.488c-2.059-0.263-4.466,0.338-7.146,1.911
		c-10.721,6.295-21.752,25.759-24.637,43.473c-1.809,11.065-1.312,15.972,2.925,23.058C63.991,223.037,99.671,120.44,58.127,120.488
		z"/>
	<path stroke="#FFFFFF" stroke-width="2.7955" stroke-miterlimit="10" d="M51.465,123.881c-1.641-0.208-3.56,0.272-5.694,1.522
		c-8.541,5.021-17.33,20.529-19.632,34.64c-1.438,8.819-1.043,12.719,2.334,18.371C56.14,205.587,84.562,123.847,51.465,123.881z"/>
	<path stroke="#FFFFFF" stroke-width="2.7955" stroke-miterlimit="10" d="M29.145,148.932c0,0,0.631,11.19,33.446,12.812"/>
	<path stroke="#FFFFFF" stroke-width="2.7955" stroke-miterlimit="10" d="M33.087,181.955c0,0,0.935-26.088,21.804-58.122"/>
</g>
<g id="Layer_3" display="none">
	<path display="inline" fill="#FFFFFF" stroke="#000000" stroke-width="2.7955" stroke-miterlimit="10" d="M80.174,274.043
		l-4.366,9.024c26.396,10.977,46.906,1.086,46.906,1.086l-3.858-9.841C118.855,274.312,99.37,280.264,80.174,274.043z"/>
	<path display="inline" fill="#FFFFFF" stroke="#000000" stroke-width="2.7955" stroke-miterlimit="10" d="M76.797,284.471
		l-5.056,9.024c30.566,10.977,54.315,1.086,54.315,1.086l-4.467-9.845C121.59,284.736,99.025,290.689,76.797,284.471z"/>
</g>
<g id="fins" display="none">
	<path display="inline" fill="#FFFFFF" stroke="#000000" stroke-width="5.591" stroke-miterlimit="10" d="M182.271,268.536
		c-6.897-22.596-24.351-13.619-24.351-13.619l16.773-28.793c0,0,32.364,4.275,18.871,41.455
		C193.565,267.579,185.716,279.815,182.271,268.536z"/>
	<path display="inline" fill="#FFFFFF" stroke="#000000" stroke-width="5.591" stroke-miterlimit="10" d="M15.829,264.842
		c9.314-21.832,25.706-11.28,25.706-11.28L27.97,223.356c0.003,0-32.667,1.24-23.273,39.491
		C4.697,262.848,11.176,275.752,15.829,264.842z"/>
	<path display="inline" fill="#FFFFFF" stroke="#000000" stroke-width="5.591" stroke-miterlimit="10" d="M59.281,287.001
		c-1.351-17.878,13.699-15.599,13.699-15.599l-20.09-16.679c0.006-0.006-22.069,10.801-1.991,34.291
		C50.898,289.015,59.957,295.93,59.281,287.001z"/>
	<path display="inline" fill="#FFFFFF" stroke="#000000" stroke-width="5.591" stroke-miterlimit="10" d="M138.577,287.001
		c1.352-17.878-13.689-15.599-13.689-15.599l20.083-16.679c0,0,22.067,10.801,1.989,34.291
		C146.96,289.015,137.908,295.93,138.577,287.001z"/>
</g>
<g id="Layer_5" display="none">
	<path display="inline" fill="#FFFFFF" stroke="#000000" stroke-width="1.9991" stroke-miterlimit="10" d="M66.46,90.726V72.49
		c-4.291-4.291-9.297,0-9.297,0v38.26C57.163,110.75,66.46,104.314,66.46,90.726z"/>
	<path display="inline" fill="#FFFFFF" stroke="#000000" stroke-width="1.9991" stroke-miterlimit="10" d="M134.04,90.726V72.49
		c4.291-4.291,9.297,0,9.297,0v38.26C143.337,110.75,134.04,104.314,134.04,90.726z"/>
</g>
</svg>
